<svg width="301" height="352" viewBox="0 0 301 352" fill="none" xmlns="http://www.w3.org/2000/svg">
<path d="M211.961 87.0316C182.299 84.5114 164.349 95.252 155.966 102.29C155.133 103.63 154.334 104.984 153.563 106.347C149.046 114.268 145.729 122.69 143.145 131.276C140.582 139.877 138.831 148.7 137.659 157.637C137.521 158.757 137.393 159.877 137.241 160.994L137.021 162.669C136.963 163.23 136.929 163.798 136.881 164.361C136.712 166.62 136.492 168.871 136.297 171.124L135.973 177.933L135.881 179.634L135.833 180.484L135.827 181.339L135.796 184.763L135.738 188.186L135.705 189.898C135.693 190.468 135.731 191.043 135.74 191.615L135.869 198.493C135.841 200.787 136.049 203.088 136.14 205.39L136.458 212.305C136.645 214.611 136.825 216.921 136.983 219.236C137.159 221.547 137.258 223.87 137.536 226.183C137.772 228.499 137.985 230.822 138.199 233.147L138.507 236.642L138.923 240.13C139.202 242.457 139.448 244.792 139.703 247.131C139.833 248.301 139.92 249.478 140.08 250.644L140.543 254.152C140.851 256.492 141.132 258.842 141.407 261.199L141.81 264.739L142.304 268.268C142.621 270.627 142.933 272.991 143.211 275.37C143.489 277.748 143.743 280.139 144.079 282.515C144.718 287.273 145.292 292.072 145.649 296.968C143.236 292.732 141.04 288.396 138.911 284.022C137.794 281.85 136.899 279.607 135.921 277.382C134.96 275.152 134.034 272.907 133.114 270.657L131.75 267.273C131.325 266.135 130.933 264.986 130.522 263.842C129.717 261.55 128.915 259.253 128.142 256.945L126.982 253.479C126.603 252.321 126.291 251.143 125.945 249.975C125.284 247.63 124.614 245.282 123.979 242.926L123.021 239.388L122.207 235.811C121.682 233.421 121.156 231.029 120.651 228.63C120.11 226.239 119.736 223.81 119.349 221.384C118.952 218.957 118.579 216.526 118.213 214.093C118.035 212.874 117.929 211.642 117.797 210.417L117.419 206.732L117.062 203.044C116.924 201.818 116.876 200.579 116.811 199.339L116.487 191.907C116.472 191.287 116.43 190.669 116.438 190.047L116.454 188.179L116.491 184.443C116.471 179.468 116.942 174.465 117.318 169.483C117.642 166.991 117.944 164.498 118.293 162.013C118.383 161.391 118.458 160.769 118.558 160.148L118.904 158.289C119.133 157.049 119.385 155.814 119.624 154.578C121.637 144.703 124.678 134.951 129.034 125.759C133.06 117.247 138.179 109.188 144.516 102.253C136.116 95.2148 118.176 84.5144 88.5663 87.0316C22.4317 92.6514 -8.29607 159.362 2.35688 214.531C20.2595 307.238 109.211 321.793 150.263 351.975C191.316 321.793 280.267 307.238 298.17 214.531C308.823 159.362 278.094 92.6514 211.961 87.0316Z" fill="#FF5C58"/>
<path d="M232.795 11.6478C232.795 11.6478 230.754 17.4299 216.484 21.3115C213.68 22.0741 198.187 23.6381 194.986 24.1489C176.676 27.0653 165.913 35.8726 157.239 49.0276C159.157 54.6504 163.58 68.784 165.813 85.3618C170.828 84.9969 176.556 83.9036 182.888 81.6113C200.718 75.1604 216.45 65.4714 225.109 48.5778C230.079 38.8828 233.371 23.3402 232.795 11.6478Z" fill="#1EA896"/>
<path d="M160.559 94.2302C160.321 91.2602 159.986 88.3245 159.585 85.4587C159.581 85.4275 159.576 85.3962 159.572 85.3649C159.531 85.0864 159.491 84.8078 159.451 84.5308C159.441 84.4578 159.43 84.3848 159.42 84.3118C159.368 83.9574 159.314 83.6029 159.259 83.2499C159.252 83.2022 159.245 83.156 159.237 83.1084C159.191 82.8075 159.143 82.5081 159.096 82.2087C159.078 82.103 159.062 81.9972 159.044 81.8914C159.005 81.6516 158.965 81.4119 158.926 81.1735C158.906 81.0529 158.885 80.9322 158.865 80.8116C158.827 80.5867 158.788 80.3618 158.749 80.1369C158.729 80.0162 158.708 79.8941 158.687 79.7734C158.647 79.5485 158.608 79.3236 158.568 79.1002C158.547 78.984 158.526 78.8678 158.506 78.7531C158.462 78.5163 158.419 78.281 158.376 78.0471C158.358 77.9473 158.339 77.8475 158.321 77.7477C158.268 77.4618 158.214 77.1773 158.159 76.8943C158.15 76.8481 158.141 76.8019 158.134 76.7572C158.067 76.4161 158.002 76.0765 157.935 75.7399C157.933 75.728 157.93 75.7161 157.927 75.7057C157.865 75.3899 157.802 75.0756 157.738 74.7643C157.722 74.6824 157.706 74.6035 157.689 74.523C157.639 74.2788 157.59 74.036 157.539 73.7932C157.518 73.6979 157.499 73.6025 157.478 73.5072C157.431 73.2793 157.383 73.0529 157.334 72.828C157.313 72.7312 157.294 72.6344 157.273 72.539C157.224 72.3097 157.173 72.0833 157.124 71.8569C157.105 71.7705 157.086 71.6826 157.066 71.5947C157.013 71.3504 156.958 71.1077 156.904 70.8664C156.889 70.8009 156.875 70.7338 156.86 70.6683C156.647 69.7269 156.431 68.8035 156.216 67.9038C156.207 67.8696 156.2 67.8338 156.191 67.7996C156.128 67.5374 156.064 67.2782 156.002 67.0221C155.988 66.9669 155.975 66.9133 155.962 66.8582C155.902 66.6184 155.843 66.3801 155.785 66.1433C155.77 66.0882 155.756 66.0315 155.742 65.9764C155.682 65.7366 155.623 65.4983 155.562 65.2615C155.55 65.2168 155.539 65.1706 155.527 65.126C155.461 64.8653 155.394 64.6061 155.328 64.3499C155.324 64.3335 155.319 64.3157 155.315 64.2993C155.019 63.1613 154.726 62.071 154.439 61.0329C154.438 61.0299 154.438 61.0269 154.436 61.0254C154.366 60.7692 154.295 60.516 154.225 60.2658C154.224 60.2598 154.222 60.2524 154.219 60.2464C152.625 54.573 151.241 50.5753 150.743 49.1811C148.244 44.8229 145.099 40.2696 141.146 35.6254C124.562 16.1446 101.087 3.90116 75.698 0.965405C61.1258 -0.719189 43.7912 -0.564297 29.3335 5.70936C29.3335 5.70936 38.5606 5.32808 50.2201 21.5291C52.5113 24.7121 59.8933 36.9198 66.2687 47.5472C85.0203 78.8097 107.169 84.8212 143.458 87.7704C145.335 87.9223 147.185 88.0266 148.989 88.0728L155.468 87.9328L157.689 94.7799L161.09 95.0405L160.972 94.1975L160.559 94.2302Z" fill="#1EA896"/>
</svg>
